<svg width="26" height="27" viewBox="0 0 26 27" fill="none" xmlns="http://www.w3.org/2000/svg">
<g clip-path="url(#clip0_86_100)">
<path d="M25.4284 12.9571C25.337 12.6538 25.1741 12.3769 24.9534 12.1496C24.7851 11.9677 24.5689 11.837 24.3295 11.7728C24.4467 11.958 24.5528 12.1718 24.632 12.3998C24.7217 12.633 24.776 12.8795 24.795 13.1392C24.8215 13.3622 24.8215 13.5875 24.795 13.8105C24.7458 13.6452 24.6698 13.489 24.5702 13.3482C24.3738 13.0835 24.1119 12.8746 23.8102 12.7418C23.4757 12.5919 23.0976 12.5707 22.7485 12.6823C22.3994 12.7939 22.1037 13.0305 21.9181 13.3466C21.839 13.4764 21.7756 13.6168 21.7281 13.7678C19.8566 10.6518 16.4889 8.58867 12.6382 8.58867C12.4419 8.58867 12.2471 8.59395 12.054 8.6045C10.8593 8.60639 9.67061 8.77316 8.52154 9.10009C8.42338 8.41292 7.52088 7.01959 3.37254 7.01959L4.63921 10.9938C3.84252 11.6374 3.17293 12.4241 2.66479 13.3133L0.205877 13.3529C0.205877 13.3529 -0.0632897 19.6863 1.78921 19.6863H2.64421C3.22715 20.6722 4.00577 21.5285 4.93213 22.2022L4.95588 26.0196H6.66588C8.74004 26.0196 9.70588 26.0196 9.70588 24.8321V24.2146C11.3031 24.5089 12.941 24.5046 14.5366 24.2019L14.4559 24.8321C14.4559 26.0196 15.4375 26.0196 17.5275 26.0196H19.2059V22.2354C20.6896 21.2051 21.7577 19.68 22.219 17.9335C22.3092 17.8908 22.3995 17.8955 22.4913 17.8955C22.5831 17.8955 22.6734 17.8908 22.7636 17.8797C23.161 17.8068 23.5236 17.6517 23.8387 17.4316C24.2646 17.1303 24.5905 16.7085 24.7745 16.2203C24.8188 16.0726 24.852 15.9184 24.8742 15.758L24.8758 15.7422C25.2257 15.3273 25.4648 14.808 25.5392 14.2364C25.6025 13.7996 25.5635 13.3541 25.4252 12.9349L25.4284 12.9571ZM5.76338 12.9571C6.07832 12.9571 6.38037 13.0822 6.60307 13.3049C6.82577 13.5276 6.95088 13.8296 6.95088 14.1446C6.95088 14.4595 6.82577 14.7616 6.60307 14.9843C6.38037 15.207 6.07832 15.3321 5.76338 15.3321C5.44843 15.3321 5.14639 15.207 4.92369 14.9843C4.70099 14.7616 4.57588 14.4595 4.57588 14.1446C4.57588 13.8296 4.70099 13.5276 4.92369 13.3049C5.14639 13.0822 5.44843 12.9571 5.76338 12.9571ZM9.51588 11.7696C9.3371 11.8276 9.14351 11.8201 8.96975 11.7485C8.79599 11.6768 8.65339 11.5457 8.56746 11.3785C8.54053 11.2954 8.53152 11.2076 8.54104 11.1208C8.55056 11.034 8.57838 10.9502 8.62267 10.8749C8.66696 10.7996 8.72672 10.7346 8.79799 10.6841C8.86926 10.6337 8.95042 10.5989 9.03613 10.5821C10.0774 10.332 11.1463 10.2149 12.217 10.2338L12.377 10.2322C13.4431 10.2343 14.4717 10.3567 15.4629 10.5995C15.6624 10.6375 15.8777 10.8877 15.8777 11.1885C15.8773 11.2525 15.8671 11.316 15.8476 11.3769C15.7925 11.4798 15.7144 11.5686 15.6194 11.6364C15.5244 11.7042 15.415 11.7493 15.2998 11.768H15.0575C14.173 11.555 13.2662 11.4487 12.3564 11.4513H12.2155C11.2575 11.4513 10.3265 11.5669 9.43513 11.7854L9.51588 11.7696ZM23.2909 16.4088C23.0763 16.5625 22.832 16.6698 22.5736 16.7238L22.3725 16.7254V16.0288C22.6338 16.2267 22.9647 16.3454 23.3225 16.3454H23.3558L23.2909 16.4088ZM23.4175 15.3321C23.2704 15.3527 23.1204 15.3257 22.9897 15.2551C22.8589 15.1844 22.7542 15.0738 22.6908 14.9394C22.6173 14.8014 22.579 14.6475 22.5793 14.4911C22.5795 14.3348 22.6184 14.181 22.6924 14.0433C22.7672 13.9385 22.8781 13.865 23.0037 13.837C23.1294 13.8089 23.2609 13.8283 23.3732 13.8913C23.5167 13.9463 23.6401 14.0436 23.7271 14.1702C23.8142 14.2969 23.8608 14.4469 23.8609 14.6006C23.8912 14.8202 23.8907 15.0445 23.8593 15.264C23.7122 15.2918 23.5625 15.3035 23.4128 15.2988L23.4175 15.3321ZM12.8725 5.43625H11.2892V5.16709H11.685V3.44125H11.2892L12.16 2.57042H12.4767V5.16709H12.8725V5.43625Z" fill="#FCEBD8"/>
<path d="M12.0809 1.87375C12.3929 1.87385 12.7018 1.93541 12.99 2.0549C13.2782 2.17439 13.54 2.34948 13.7606 2.57016C13.9811 2.79085 14.156 3.05281 14.2753 3.3411C14.3946 3.62938 14.456 3.93834 14.4559 4.25033C14.4558 4.56233 14.3942 4.87124 14.2747 5.15945C14.1552 5.44765 13.9802 5.7095 13.7595 5.93004C13.5388 6.15058 13.2768 6.32549 12.9885 6.44479C12.7002 6.56409 12.3913 6.62544 12.0793 6.62533C11.4492 6.62512 10.845 6.37461 10.3996 5.92892C9.95419 5.48322 9.70409 4.87885 9.7043 4.24875C9.70451 3.61865 9.95501 3.01444 10.4007 2.56904C10.8464 2.12364 11.4508 1.87354 12.0809 1.87375ZM12.0809 0.686249C11.136 0.686249 10.2299 1.06158 9.56181 1.72968C8.89371 2.39778 8.51838 3.30392 8.51838 4.24875C8.51838 5.19358 8.89371 6.09972 9.56181 6.76782C10.2299 7.43592 11.136 7.81125 12.0809 7.81125C13.0257 7.81125 13.9318 7.43592 14.5999 6.76782C15.268 6.09972 15.6434 5.19358 15.6434 4.24875C15.6434 3.30392 15.268 2.39778 14.5999 1.72968C13.9318 1.06158 13.0257 0.686249 12.0809 0.686249Z" fill="#FCEBD8"/>
</g>
<defs>
<clipPath id="clip0_86_100">
<rect width="25.3333" height="25.3333" fill="white" transform="translate(0.205879 0.686256)"/>
</clipPath>
</defs>
</svg>
