<svg width="35" height="34" viewBox="0 0 35 34" fill="none" xmlns="http://www.w3.org/2000/svg">
<path d="M17.2129 9.14457L17.2001 9.13607L16.0767 8.38099C15.3056 7.86233 14.3857 7.61073 13.4579 7.66472C12.5301 7.71871 11.6456 8.0753 10.9399 8.6799L8.18161 11.0443C7.98897 11.2091 7.74376 11.2995 7.49028 11.2993H4.35661C4.07482 11.2993 3.80457 11.4113 3.60531 11.6105C3.40605 11.8098 3.29411 12.08 3.29411 12.3618V20.9043C3.29411 21.4908 3.77011 21.9668 4.35661 21.9668H7.31461C7.46548 21.9667 7.61464 21.9988 7.75217 22.0608C7.88969 22.1229 8.01242 22.2135 8.1122 22.3267L11.4258 26.095C11.9416 26.6813 12.6547 27.0578 13.4298 27.1531C14.2048 27.2484 14.9879 27.0559 15.6304 26.6121L16.5994 25.942L17.6393 26.2962C18.2818 26.5141 18.9772 26.5212 19.6241 26.3166C20.271 26.112 20.8358 25.7063 21.2362 25.1586L21.902 24.2491L22.3639 24.3114C23.0035 24.3976 23.6542 24.2876 24.2299 23.9959C24.8057 23.7042 25.2793 23.2447 25.5882 22.678L25.6576 22.5505H30.5649C30.8467 22.5505 31.117 22.4385 31.3162 22.2393C31.5155 22.04 31.6274 21.7698 31.6274 21.488V12.3632C31.6274 12.0814 31.5155 11.8112 31.3162 11.6119C31.117 11.4127 30.8467 11.3007 30.5649 11.3007H27.4327C27.1779 11.3008 26.9315 11.2093 26.7385 11.0429L24.3458 8.97599C23.3477 8.11356 22.0645 7.65329 20.7458 7.68471C19.4271 7.71613 18.1673 8.23701 17.2114 9.14599M14.8881 10.1447L15.6843 10.6802L12.9076 13.4725C12.6084 13.7734 12.3722 14.1311 12.2131 14.5245C12.0539 14.918 11.9749 15.3392 11.9807 15.7636C11.9865 16.188 12.077 16.6069 12.2469 16.9958C12.4167 17.3848 12.6626 17.7358 12.9699 18.0285L13.0663 18.1192C14.2138 19.2114 15.9874 19.2964 17.2327 18.3175L20.1779 16.0055L23.942 19.6251C24.1102 19.7866 24.2206 19.9989 24.2562 20.2293C24.2917 20.4597 24.2506 20.6954 24.1389 20.9001L24.1035 20.9624L24.0837 20.9992L23.7224 21.6608C23.6195 21.8495 23.4617 22.0024 23.27 22.0996C23.0783 22.1967 22.8616 22.2334 22.6486 22.2048L21.5592 22.0589C21.3699 22.0334 21.1772 22.0595 21.0015 22.1342C20.8257 22.209 20.6733 22.3298 20.5604 22.4839L19.5206 23.9034C19.3872 24.086 19.1991 24.2212 18.9835 24.2895C18.768 24.3578 18.5363 24.3555 18.3221 24.2831L16.7779 23.7589C16.6209 23.7055 16.4535 23.6895 16.2891 23.7124C16.1248 23.7353 15.9681 23.7963 15.8316 23.8907L14.4234 24.8639C14.2091 25.0121 13.9479 25.0763 13.6893 25.0444C13.4307 25.0126 13.1929 24.8868 13.0209 24.6911L9.70736 20.9227C9.40801 20.5828 9.03964 20.3106 8.62681 20.1242C8.21397 19.9378 7.76615 19.8415 7.3132 19.8418H5.41911V13.4243H7.48886C8.2495 13.4245 8.98512 13.1527 9.56286 12.6579L12.3225 10.2935C12.6753 9.99108 13.1175 9.81265 13.5814 9.78553C14.0453 9.75841 14.5053 9.88409 14.8909 10.1433M26.3943 20.4269C26.3994 19.9916 26.3153 19.5599 26.1472 19.1584C25.9791 18.7569 25.7305 18.394 25.4168 18.0922L21.8454 14.6582C22.0057 14.4539 22.0855 14.1979 22.0699 13.9386C22.0543 13.6794 21.9443 13.4348 21.7607 13.2512C21.577 13.0675 21.3325 12.9575 21.0732 12.9419C20.814 12.9263 20.558 13.0062 20.3536 13.1665L19.6368 13.7289L19.5518 13.7955L15.9223 16.6472C15.7213 16.8051 15.4702 16.8853 15.215 16.8731C14.9597 16.8608 14.7175 16.757 14.5325 16.5807L14.4362 16.4886C14.3337 16.3911 14.2517 16.274 14.1951 16.1444C14.1384 16.0148 14.1082 15.8752 14.1062 15.7337C14.1042 15.5923 14.1305 15.4518 14.1835 15.3207C14.2366 15.1895 14.3152 15.0703 14.4149 14.9699L18.6154 10.7482C19.1842 10.1764 19.9487 9.8414 20.7548 9.8109C21.5608 9.7804 22.3484 10.0566 22.9589 10.5839L25.3488 12.6494C25.9283 13.1498 26.6685 13.4248 27.4341 13.4243H29.5024V20.4269H26.3943Z" fill="#FCEBD8"/>
</svg>
