<svg width="27" height="28" viewBox="0 0 27 28" fill="none" xmlns="http://www.w3.org/2000/svg">
<path d="M11.4512 2.53934C11.7092 2.25127 12.025 2.02083 12.378 1.86307C12.731 1.70531 13.1133 1.62376 13.5 1.62376C13.8867 1.62376 14.269 1.70531 14.622 1.86307C14.975 2.02083 15.2908 2.25127 15.5487 2.53934L16.5112 3.61459C16.7863 3.92189 17.127 4.16339 17.5081 4.32119C17.8891 4.479 18.3008 4.54907 18.7126 4.52621L20.1564 4.44646C20.5425 4.42517 20.9288 4.48558 21.2901 4.62373C21.6513 4.76188 21.9793 4.97467 22.2527 5.24821C22.5262 5.52175 22.7388 5.84988 22.8768 6.21118C23.0147 6.57247 23.075 6.95881 23.0535 7.34496L22.9737 8.78734C22.9511 9.19892 23.0213 9.61033 23.1791 9.99113C23.3369 10.3719 23.5783 10.7124 23.8854 10.9873L24.9606 11.9498C25.2489 12.2078 25.4796 12.5236 25.6375 12.8768C25.7954 13.2299 25.877 13.6124 25.877 13.9993C25.877 14.3861 25.7954 14.7686 25.6375 15.1218C25.4796 15.4749 25.2489 15.7908 24.9606 16.0487L23.8854 17.0112C23.5781 17.2863 23.3366 17.627 23.1788 18.008C23.021 18.3891 22.9509 18.8008 22.9737 19.2126L23.0535 20.6563C23.0748 21.0425 23.0144 21.4288 22.8762 21.79C22.7381 22.1513 22.5253 22.4793 22.2518 22.7527C21.9782 23.0261 21.6501 23.2388 21.2888 23.3767C20.9275 23.5147 20.5412 23.5749 20.155 23.5535L18.7126 23.4737C18.301 23.4511 17.8896 23.5212 17.5088 23.679C17.128 23.8368 16.7876 24.0782 16.5126 24.3853L15.5501 25.4606C15.2922 25.7489 14.9763 25.9795 14.6232 26.1374C14.27 26.2953 13.8875 26.3769 13.5007 26.3769C13.1138 26.3769 12.7314 26.2953 12.3782 26.1374C12.0251 25.9795 11.7092 25.7489 11.4512 25.4606L10.4887 24.3853C10.2137 24.078 9.87298 23.8365 9.49192 23.6787C9.11086 23.5209 8.69918 23.4509 8.28737 23.4737L6.84362 23.5535C6.45746 23.5747 6.07115 23.5143 5.70992 23.3762C5.34869 23.238 5.02066 23.0253 4.74725 22.7517C4.47385 22.4782 4.26121 22.15 4.12323 21.7887C3.98525 21.4275 3.92503 21.0411 3.9465 20.655L4.02625 19.2126C4.04889 18.801 3.97872 18.3896 3.82093 18.0088C3.66313 17.628 3.42174 17.2875 3.11462 17.0126L2.03937 16.0501C1.75108 15.7921 1.52045 15.4763 1.36255 15.1231C1.20465 14.77 1.12303 14.3875 1.12303 14.0006C1.12303 13.6138 1.20465 13.2313 1.36255 12.8782C1.52045 12.525 1.75108 12.2092 2.03937 11.9512L3.11462 10.9887C3.42193 10.7136 3.66343 10.3729 3.82123 9.99188C3.97903 9.61082 4.0491 9.19915 4.02625 8.78734L3.9465 7.34359C3.92541 6.95754 3.98597 6.57138 4.12421 6.21031C4.26245 5.84925 4.47527 5.52139 4.74879 5.24813C5.0223 4.97488 5.35036 4.76237 5.71156 4.62447C6.07275 4.48657 6.45897 4.42638 6.845 4.44784L8.28737 4.52759C8.69896 4.55023 9.11036 4.48006 9.49117 4.32226C9.87198 4.16447 10.2124 3.92308 10.4874 3.61596L11.4512 2.53934Z" stroke="#FCEBD8" stroke-width="1.5"/>
<path d="M10.0625 10.5625H10.0763V10.5762H10.0625V10.5625ZM16.9375 17.4375H16.9513V17.4512H16.9375V17.4375Z" stroke="#FCEBD8" stroke-width="2.25" stroke-linejoin="round"/>
<path d="M17.625 9.87498L9.375 18.125" stroke="#FCEBD8" stroke-width="1.5" stroke-linecap="round" stroke-linejoin="round"/>
</svg>
